<svg width="518" height="109" viewBox="0 0 518 109" fill="none" xmlns="http://www.w3.org/2000/svg">
<g clip-path="url(#clip0_205_132)">
<path d="M463.148 0H54.057C24.2022 0 0 24.3099 0 54.2977V54.3316C0 84.3194 24.2022 108.629 54.057 108.629H463.148C493.003 108.629 517.205 84.3194 517.205 54.3316V54.2977C517.205 24.3099 493.003 0 463.148 0Z" fill="#FF0000"/>
</g>
<path d="M39.8926 66.1098C39.5199 66.1098 39.1472 66.1438 38.8083 66.2116C38.4695 66.2794 38.1306 66.3473 37.7579 66.3812C37.4191 66.449 37.1141 66.4829 36.8091 66.5169C36.5042 66.5169 36.1992 66.5508 35.8943 66.5508C35.4876 66.5508 35.1827 66.4151 35.0133 66.1438C34.7761 65.8046 34.5728 65.3975 34.4372 64.9566C34.3017 64.5156 34.1661 64.0747 34.0645 63.5998C33.9967 63.2606 34.1323 63.125 34.5389 63.1928C35.5893 63.3624 36.8769 63.4302 38.3678 63.4302H50.0919V58.5459C50.0919 58.3084 50.058 58.071 49.9564 57.7997C49.8547 57.5622 49.7192 57.3587 49.5159 57.223C49.2448 57.0195 48.9737 56.8499 48.7365 56.7142C48.4993 56.5786 48.2283 56.4768 47.9572 56.375C47.72 56.3072 47.5845 56.2055 47.5845 56.0359C47.5845 55.8323 47.6183 55.5949 47.72 55.3575C47.7878 55.12 47.8894 54.8826 47.9572 54.6791C47.9572 54.6113 48.1605 54.5434 48.4316 54.5434C50.0919 54.6113 51.6506 54.8487 53.1415 55.2896C53.311 55.3575 53.4126 55.4592 53.4804 55.5949C53.5481 55.7306 53.5481 55.9002 53.5143 56.1037C53.4465 56.7142 53.3787 57.3248 53.311 58.0032C53.2432 58.6815 53.2432 59.3599 53.2432 60.0722V63.4641H63.0358C63.4086 63.4641 63.7813 63.4302 64.154 63.3624C64.5268 63.2946 64.8656 63.2267 65.2383 63.1928C65.5772 63.125 65.9499 63.091 66.2888 63.0571C66.6276 63.0571 66.9326 63.0232 67.2375 63.0232C67.7119 63.0232 68.0169 63.1589 68.1863 63.4302C68.4235 63.8033 68.6268 64.2104 68.8301 64.6852C68.9995 65.1262 69.1351 65.5671 69.2706 65.9742C69.3384 66.3134 69.2028 66.449 68.7962 66.3812C67.6442 66.2116 66.3227 66.1438 64.764 66.1438H39.8926V66.1098ZM39.9604 40.06C40.4348 40.1278 40.977 40.1617 41.553 40.1956C42.129 40.2296 42.7728 40.2635 43.4505 40.2635H57.5465C57.8854 40.2635 58.2242 40.2635 58.5631 40.1956C58.9019 40.1278 59.2408 40.0939 59.5796 40.026C59.9185 39.9582 60.2234 39.9243 60.5623 39.8904C60.9011 39.8904 61.2061 39.8564 61.511 39.8564C61.6805 39.8564 61.816 39.8564 61.9854 39.9243C62.1548 39.9921 62.2565 40.06 62.3582 40.1956C62.6292 40.5348 62.8325 40.9419 63.002 41.4167C63.1714 41.8916 63.273 42.2986 63.3408 42.7057C63.4086 43.0448 63.2392 43.1805 62.9003 43.1127C61.7821 42.9431 60.5284 42.8752 59.1052 42.8752H53.6498C53.1754 43.7571 52.701 44.5712 52.1928 45.3174C53.2093 45.928 54.2258 46.5724 55.2763 47.3187C56.3267 48.0649 57.3771 48.8111 58.4614 49.6252C59.5118 50.4392 60.5623 51.2533 61.5788 52.1012C62.5953 52.9492 63.5441 53.7972 64.3912 54.6113C64.5945 54.8148 64.6962 54.9844 64.6284 55.154C64.5607 55.3236 64.4929 55.4932 64.459 55.6628C64.3235 55.8663 64.1202 56.1037 63.883 56.3411C63.6119 56.5786 63.3747 56.7821 63.1375 56.9178C62.7987 57.1213 62.4259 57.0195 62.0871 56.6803C61.3755 55.9341 60.5623 55.1879 59.6813 54.3738C58.7664 53.5598 57.8176 52.7796 56.8011 51.9656C55.7845 51.1515 54.768 50.3714 53.7176 49.6252C52.6671 48.8789 51.6506 48.1666 50.668 47.5222C49.0754 49.6251 47.3811 51.4229 45.5853 52.9492C43.7894 54.4756 41.9596 55.7645 40.096 56.7821C39.791 56.9517 39.5538 57.0534 39.3505 57.0534C39.1472 57.0534 38.9439 57.0534 38.7067 57.0195C38.2662 56.816 37.8935 56.6125 37.5546 56.3411C37.4191 56.2394 37.3513 56.1037 37.3852 55.9002C37.3852 55.7306 37.5207 55.561 37.724 55.4253C38.8761 54.713 40.0282 53.899 41.1803 52.9492C42.3323 51.9995 43.4505 50.9819 44.5348 49.8626C45.6191 48.7772 46.6018 47.6239 47.5506 46.4367C48.4993 45.2496 49.3465 44.0285 50.058 42.8074H44.8398C44.501 42.8074 44.196 42.8413 43.891 42.9092C43.5861 42.977 43.2472 43.0448 42.9423 43.0788C42.2985 43.1466 41.7224 43.2144 41.248 43.2144C40.9092 43.2144 40.6381 43.0788 40.4687 42.8413C40.2654 42.5361 40.0621 42.1629 39.8926 41.6881C39.7232 41.2132 39.6216 40.7723 39.5199 40.2974C39.4521 39.9921 39.6216 39.8904 39.9604 39.9243V40.06Z" fill="white"/>
<path d="M97.3268 40.0603C97.3268 39.6532 97.2929 39.2801 97.1913 38.9748C97.1235 38.6696 96.9202 38.3982 96.6152 38.1947C96.2086 37.8555 95.802 37.5842 95.3954 37.3467C94.9888 37.1093 94.5483 36.8719 94.1078 36.6684C93.9044 36.6005 93.8028 36.4648 93.8367 36.2613C93.9722 35.7864 94.1755 35.3455 94.4466 35.0063C94.5144 34.8706 94.7177 34.8367 94.9888 34.8706C95.8698 35.0741 96.7846 35.3794 97.7334 35.7186C98.6822 36.0578 99.5293 36.4648 100.309 36.9397C100.58 37.1432 100.715 37.4146 100.681 37.7538C100.614 38.3643 100.58 38.9748 100.512 39.6532C100.444 40.3316 100.41 41.01 100.41 41.7223V61.0223C100.41 61.4632 100.275 61.7685 100.004 61.9042C99.6987 62.1077 99.3938 62.3112 99.0549 62.4469C98.7161 62.5825 98.3772 62.6843 98.0045 62.6843C97.564 62.6843 97.3607 62.4808 97.3607 62.0398V48.6757H95.9375C95.5648 48.6757 95.1921 48.7096 94.8532 48.7775C94.5144 48.8453 94.1416 48.9131 93.8028 48.9471C93.4639 49.0149 93.159 49.0488 92.8201 49.0827C92.4813 49.0827 92.1763 49.1167 91.9053 49.1167C91.4986 49.1167 91.1937 48.981 91.0243 48.7096C90.8209 48.4722 90.6515 48.133 90.4482 47.726C90.3804 48.8453 90.1094 49.8968 89.6689 50.8465C89.2284 51.8302 88.6523 52.6782 87.9069 53.3905C87.1614 54.1028 86.2465 54.6794 85.1961 55.0864C84.1457 55.4934 82.9258 55.7309 81.6043 55.7309C80.2828 55.7309 78.9613 55.4935 77.877 55.0525C76.7927 54.5776 75.8439 53.9671 75.0985 53.187C74.353 52.4068 73.7431 51.491 73.3365 50.4395C72.9299 49.388 72.7266 48.2687 72.7266 47.0815C72.7266 45.8943 72.9299 44.8089 73.3365 43.7574C73.7431 42.7059 74.3191 41.7901 75.0985 40.9761C75.8439 40.1959 76.7927 39.5515 77.877 39.1105C78.9613 38.6696 80.2151 38.4321 81.6043 38.4321C82.8581 38.4321 83.9763 38.6357 84.9928 39.0088C86.0093 39.3819 86.8903 39.9246 87.6697 40.603C88.4151 41.2814 89.0251 42.0615 89.4995 42.9773C89.9738 43.8592 90.2449 44.8429 90.3804 45.8604H90.516C91.5664 46.03 92.8201 46.0979 94.2433 46.0979H97.3607V40.1281L97.3268 40.0603ZM87.3647 47.0476C87.3647 46.2335 87.2292 45.4534 86.992 44.7411C86.7209 44.0288 86.3482 43.3843 85.8399 42.8416C85.3316 42.2989 84.7217 41.858 84.0101 41.5188C83.2986 41.1796 82.4853 41.0439 81.5366 41.0439C80.5878 41.0439 79.8084 41.2135 79.063 41.5188C78.3514 41.858 77.7415 42.2989 77.2332 42.8416C76.7249 43.3843 76.3522 44.0288 76.0811 44.7411C75.8101 45.4534 75.7084 46.2335 75.7084 47.0476C75.7084 47.8617 75.8439 48.6418 76.0811 49.3541C76.3522 50.0664 76.7249 50.7109 77.2332 51.2536C77.7415 51.7963 78.3514 52.2372 79.063 52.5764C79.7746 52.9156 80.5878 53.0513 81.5366 53.0513C82.4853 53.0513 83.2647 52.8817 84.0101 52.5764C84.7217 52.2372 85.3316 51.7963 85.8399 51.2536C86.3482 50.7109 86.7209 50.0664 86.992 49.3541C87.2631 48.6418 87.3647 47.8617 87.3647 47.0476ZM84.4845 67.7383C84.4845 68.0774 84.5523 68.281 84.6878 68.3827C84.8234 68.4845 85.0267 68.5523 85.3316 68.5523H96.988C97.3607 68.5523 97.7334 68.5184 98.1061 68.4506C98.4789 68.3827 98.8177 68.3149 99.1904 68.281C99.5293 68.2131 99.902 68.1792 100.241 68.1453C100.58 68.1453 100.885 68.1114 101.19 68.1114C101.664 68.1114 101.969 68.247 102.138 68.5184C102.613 69.2646 102.952 70.1126 103.155 71.0284C103.223 71.3676 103.053 71.5033 102.681 71.4354C101.528 71.2658 100.207 71.198 98.6483 71.198H85.7044C85.3655 71.198 84.9928 71.198 84.6539 71.1302C84.3151 71.0962 83.9763 71.0284 83.7052 70.9606C82.8581 70.6892 82.2481 70.2483 81.8754 69.6038C81.7399 69.4003 81.6382 69.1629 81.5366 68.9254C81.4349 68.688 81.401 68.4166 81.401 68.1453V63.634C81.401 63.227 81.3671 62.8539 81.2994 62.4808C81.2316 62.1416 81.0622 61.8702 80.7911 61.6667C80.1812 61.1919 79.4696 60.8527 78.7241 60.6492C78.5208 60.5813 78.3853 60.4796 78.3853 60.31C78.3853 59.9029 78.4531 59.5298 78.6225 59.2246C78.6903 59.055 78.8936 58.9871 79.1646 58.9871C79.944 59.055 80.7911 59.1567 81.706 59.3263C82.6209 59.4959 83.5019 59.7333 84.3829 60.0047C84.6878 60.1064 84.7895 60.3778 84.7556 60.8188C84.6878 61.5989 84.6201 62.4469 84.5523 63.2948C84.4845 64.1767 84.4845 65.0586 84.4845 66.0084V67.7043V67.7383Z" fill="white"/>
<path d="M128.263 50.6091C128.263 51.898 128.026 53.1191 127.586 54.2724C127.145 55.4256 126.501 56.4093 125.654 57.2573C124.807 58.1052 123.824 58.7836 122.638 59.2585C121.486 59.7333 120.165 60.0047 118.708 60.0047C117.251 60.0047 115.929 59.7673 114.777 59.2585C113.625 58.7836 112.609 58.1052 111.761 57.2573C110.914 56.4093 110.271 55.3917 109.83 54.2724C109.39 53.153 109.152 51.898 109.152 50.6091C109.152 49.3202 109.39 48.0991 109.83 46.9458C110.271 45.7926 110.914 44.8089 111.761 43.961C112.609 43.113 113.591 42.4346 114.777 41.9597C115.929 41.4849 117.251 41.2135 118.708 41.2135C120.165 41.2135 121.486 41.4509 122.638 41.9597C123.79 42.4346 124.807 43.113 125.654 43.961C126.501 44.8089 127.145 45.8265 127.586 46.9458C128.026 48.0991 128.263 49.3202 128.263 50.6091ZM125.214 50.6091C125.214 49.7272 125.078 48.9131 124.773 48.0991C124.468 47.285 124.028 46.5727 123.486 45.9283C122.943 45.2838 122.232 44.8089 121.419 44.4358C120.605 44.0627 119.724 43.8592 118.708 43.8592C117.691 43.8592 116.81 44.0627 115.997 44.4358C115.184 44.8089 114.506 45.3177 113.93 45.9283C113.354 46.5388 112.914 47.285 112.642 48.0991C112.338 48.9131 112.202 49.7611 112.202 50.6091C112.202 51.4571 112.338 52.3051 112.642 53.1191C112.947 53.9332 113.388 54.6455 113.93 55.2899C114.472 55.9344 115.184 56.4093 115.997 56.7824C116.81 57.1555 117.691 57.359 118.708 57.359C119.724 57.359 120.605 57.1555 121.419 56.7824C122.232 56.4093 122.909 55.9005 123.486 55.2899C124.062 54.6794 124.502 53.9332 124.773 53.1191C125.078 52.3051 125.214 51.4571 125.214 50.6091ZM137.277 70.1465C137.277 70.5875 137.141 70.8927 136.87 71.0284C136.565 71.2319 136.26 71.4354 135.921 71.5711C135.582 71.7068 135.244 71.8086 134.871 71.8086C134.43 71.8086 134.227 71.605 134.227 71.1641V40.0603C134.227 39.6532 134.193 39.2801 134.091 38.9748C134.024 38.6696 133.82 38.3982 133.515 38.1947C133.109 37.8555 132.702 37.5842 132.296 37.3467C131.889 37.1093 131.448 36.8719 131.008 36.6684C130.805 36.6005 130.703 36.4648 130.737 36.2613C130.872 35.7864 131.076 35.3455 131.347 35.0063C131.415 34.8706 131.618 34.8367 131.889 34.8706C132.77 35.0741 133.685 35.3794 134.634 35.7186C135.582 36.0578 136.429 36.4648 137.209 36.9397C137.48 37.1432 137.615 37.4146 137.582 37.7538C137.514 38.3643 137.48 38.9748 137.412 39.6532C137.344 40.3316 137.31 41.01 137.31 41.7223V70.1804L137.277 70.1465Z" fill="white"/>
<path d="M163.571 50.6086C163.571 51.8976 163.368 53.1187 162.927 54.2719C162.487 55.4252 161.911 56.4088 161.098 57.2568C160.284 58.1048 159.336 58.7832 158.183 59.258C157.031 59.7329 155.71 60.0042 154.253 60.0042C152.796 60.0042 151.474 59.7668 150.322 59.258C149.17 58.7832 148.187 58.1048 147.408 57.2568C146.595 56.4088 145.985 55.3912 145.578 54.2719C145.172 53.1526 144.935 51.8976 144.935 50.6086C144.935 49.3197 145.138 48.0986 145.578 46.9454C146.019 45.7921 146.595 44.8085 147.408 43.9605C148.221 43.1125 149.17 42.4341 150.322 41.9593C151.474 41.4844 152.796 41.213 154.253 41.213C155.71 41.213 157.031 41.4505 158.183 41.9593C159.336 42.4341 160.318 43.1125 161.098 43.9605C161.911 44.8085 162.521 45.8261 162.927 46.9454C163.334 48.0647 163.571 49.3197 163.571 50.6086ZM160.522 50.6086C160.522 49.7267 160.386 48.9127 160.081 48.0986C159.81 47.2846 159.403 46.5723 158.861 45.9278C158.319 45.3173 157.675 44.8085 156.896 44.4354C156.116 44.0623 155.236 43.8587 154.219 43.8587C153.202 43.8587 152.321 44.0623 151.542 44.4354C150.763 44.8085 150.119 45.3173 149.577 45.9278C149.035 46.5384 148.628 47.2846 148.357 48.0986C148.086 48.9127 147.916 49.7607 147.916 50.6086C147.916 51.4566 148.052 52.3046 148.357 53.1187C148.628 53.9327 149.035 54.645 149.577 55.2895C150.119 55.9 150.763 56.4088 151.542 56.7819C152.321 57.155 153.202 57.3585 154.219 57.3585C155.236 57.3585 156.116 57.155 156.896 56.7819C157.675 56.4088 158.319 55.9 158.861 55.2895C159.403 54.6789 159.81 53.9327 160.081 53.1187C160.352 52.3046 160.522 51.4566 160.522 50.6086ZM172.246 44.9781H173.533C173.906 44.9781 174.279 44.9781 174.618 44.8763C174.956 44.7746 175.329 44.7406 175.668 44.7067C176.007 44.6389 176.312 44.605 176.651 44.571C176.989 44.571 177.294 44.5371 177.599 44.5371C178.006 44.5371 178.311 44.6728 178.48 44.9442C178.684 45.2494 178.887 45.6225 179.09 46.0974C179.294 46.5723 179.395 47.0132 179.463 47.4881C179.531 47.8273 179.361 47.963 178.989 47.8951C177.938 47.7255 176.684 47.6577 175.261 47.6577H172.246V54.5772H173.94C174.313 54.5772 174.685 54.5433 175.024 54.4754C175.363 54.4076 175.736 54.3397 176.075 54.3058C176.413 54.238 176.718 54.2041 177.057 54.1702C177.396 54.1362 177.701 54.1362 178.006 54.1362C178.413 54.1362 178.718 54.2719 178.887 54.5433C179.09 54.8485 179.294 55.2216 179.497 55.6965C179.7 56.1714 179.802 56.6123 179.87 57.0872C179.937 57.4264 179.768 57.5621 179.395 57.4942C178.345 57.3246 177.091 57.2568 175.668 57.2568H172.246V70.2139C172.246 70.6548 172.11 70.9601 171.839 71.0958C171.534 71.2993 171.229 71.5028 170.89 71.6385C170.551 71.7742 170.213 71.8759 169.84 71.8759C169.399 71.8759 169.196 71.6724 169.196 71.2315V40.1276C169.196 39.7206 169.162 39.3475 169.06 39.0422C168.993 38.737 168.789 38.4656 168.484 38.2621C168.078 37.9229 167.671 37.6515 167.265 37.4141C166.858 37.1767 166.417 36.9392 165.977 36.7357C165.774 36.6679 165.672 36.5322 165.706 36.3287C165.841 35.8538 166.045 35.4129 166.316 35.0737C166.384 34.938 166.587 34.9041 166.858 34.938C167.739 35.1415 168.654 35.4468 169.603 35.786C170.551 36.1252 171.398 36.5322 172.178 37.0071C172.449 37.2106 172.584 37.4819 172.551 37.8211C172.483 38.4317 172.449 39.0422 172.381 39.7206C172.313 40.399 172.279 41.0774 172.279 41.7897V45.0798L172.246 44.9781Z" fill="white"/>
<path d="M185.02 42.197C184.444 42.8076 184.139 43.4859 184.038 44.3C184.038 44.4696 184.004 44.7409 184.004 45.1141V45.996C184.004 46.2673 183.868 46.403 183.597 46.403H182.445C182.106 46.403 181.903 46.3351 181.768 46.1995C181.632 46.0638 181.53 45.8942 181.496 45.7246L180.751 41.4508C181.158 41.0777 181.632 40.6707 182.174 40.2976C182.716 39.8905 183.326 39.5513 183.97 39.2461C184.648 38.9408 185.359 38.6694 186.173 38.4659C186.986 38.2624 187.867 38.1606 188.849 38.1606C190.137 38.1606 191.323 38.3302 192.34 38.7033C193.356 39.0765 194.237 39.5513 194.949 40.1619C195.66 40.7724 196.202 41.5186 196.575 42.3666C196.948 43.2146 197.117 44.1304 197.117 45.1141C197.117 46.7761 196.677 48.2346 195.762 49.4557C194.881 50.7107 193.695 51.8979 192.272 53.085C191.56 53.6617 190.95 54.3061 190.476 55.0184C189.968 55.7307 189.663 56.5109 189.527 57.3249C189.459 57.8676 189.392 58.4443 189.358 59.0887C189.324 59.6993 189.29 60.4116 189.256 61.1578H187.054C186.986 60.4455 186.952 59.6314 186.918 58.7156C186.918 57.7998 186.986 56.9518 187.155 56.1378C187.392 55.188 187.799 54.374 188.341 53.6617C188.883 52.9833 189.561 52.2371 190.34 51.4569C191.221 50.575 191.967 49.5914 192.577 48.4381C193.187 47.2849 193.458 46.1656 193.458 45.0123C193.458 43.7234 193.017 42.7397 192.17 41.9935C191.323 41.2473 190.205 40.8403 188.816 40.8063C188.036 40.8063 187.291 40.8742 186.647 41.1455C185.969 41.383 185.427 41.7561 184.987 42.197H185.02ZM190.916 67.6703C190.916 68.4504 190.645 69.0949 190.137 69.6376C189.629 70.1464 188.985 70.4177 188.172 70.4177C187.358 70.4177 186.749 70.1464 186.206 69.6376C185.664 69.1288 185.427 68.4843 185.427 67.6703C185.427 66.8562 185.698 66.2457 186.206 65.703C186.715 65.1942 187.358 64.9228 188.172 64.9228C188.985 64.9228 189.595 65.1942 190.137 65.703C190.645 66.2117 190.916 66.8562 190.916 67.6703Z" fill="white"/>
<path d="M230.46 43.2145C229.715 45.3175 228.8 47.3526 227.716 49.2521C226.631 51.1516 225.412 52.9154 224.09 54.5435C222.769 56.1716 221.413 57.664 219.956 58.9869C218.533 60.3097 217.11 61.4969 215.687 62.4805C215.483 62.6162 215.246 62.718 215.043 62.8197C214.84 62.9215 214.602 62.8876 214.399 62.7519C214.128 62.6841 213.891 62.5823 213.654 62.4466C213.45 62.311 213.213 62.1414 213.01 62.0057C212.84 61.87 212.773 61.7004 212.84 61.5308C212.874 61.3612 212.976 61.2255 213.145 61.0899C214.467 60.0384 215.822 58.8851 217.144 57.6301C218.499 56.3751 219.753 55.0523 220.939 53.6277C222.125 52.2031 223.209 50.6767 224.226 49.0825C225.208 47.4883 226.022 45.8263 226.699 44.1303H219.211C218.838 44.1303 218.465 44.1303 218.126 44.1982C217.788 44.2321 217.449 44.2999 217.076 44.3338C216.737 44.4017 216.432 44.4356 216.127 44.4695C215.822 44.4695 215.517 44.5034 215.212 44.5034C215.009 44.5034 214.84 44.5034 214.704 44.4017C214.569 44.3338 214.467 44.2321 214.331 44.0964C214.026 43.7572 213.789 43.418 213.62 43.0449C213.45 42.6718 213.315 42.2309 213.179 41.6881C213.111 41.4168 213.281 41.2811 213.654 41.315C214.196 41.3829 214.738 41.4507 215.246 41.4507C215.754 41.4507 216.331 41.4507 216.94 41.4507H225.717C226.022 41.4507 226.293 41.4168 226.598 41.315C226.903 41.2133 227.14 41.1115 227.343 40.9758C227.648 40.7723 228.021 40.7723 228.427 40.9758C229.071 41.2811 229.681 41.7221 230.257 42.2648C230.494 42.5022 230.562 42.8075 230.427 43.1127L230.46 43.2145ZM239.033 50.3375H240.592C240.965 50.3375 241.337 50.3036 241.676 50.2358C242.015 50.1679 242.388 50.1001 242.727 50.0662C243.066 49.9983 243.37 49.9644 243.709 49.9305C244.048 49.9305 244.353 49.8966 244.658 49.8966C245.065 49.8966 245.37 50.0322 245.539 50.3036C245.742 50.6089 245.946 50.982 246.149 51.4568C246.352 51.9317 246.454 52.3727 246.522 52.8475C246.59 53.1867 246.42 53.3224 246.047 53.2546C244.997 53.085 243.743 53.0171 242.32 53.0171H239.067V70.1802C239.067 70.6211 238.932 70.9264 238.661 71.0621C238.356 71.2656 238.051 71.4691 237.712 71.6048C237.373 71.7405 237.034 71.8422 236.661 71.8422C236.221 71.8422 236.018 71.6387 236.018 71.1978V40.0939C236.018 39.6869 235.984 39.3138 235.882 39.0085C235.814 38.7033 235.611 38.4319 235.306 38.2284C234.899 37.8892 234.493 37.6179 234.086 37.3804C233.679 37.143 233.239 36.9055 232.798 36.702C232.595 36.6342 232.494 36.4985 232.527 36.295C232.663 35.8201 232.866 35.3792 233.137 35.04C233.205 34.9043 233.408 34.8704 233.679 34.9043C234.56 35.1078 235.475 35.4131 236.424 35.7523C237.373 36.0915 238.22 36.4985 238.999 36.9734C239.27 37.1769 239.406 37.4483 239.372 37.7874C239.304 38.398 239.27 39.0085 239.203 39.6869C239.135 40.3653 239.101 41.0437 239.101 41.756V50.3714L239.033 50.3375Z" fill="white"/>
<path d="M253.535 66.1099C253.162 66.1099 252.79 66.1439 252.451 66.2117C252.112 66.2795 251.773 66.3474 251.4 66.3813C251.062 66.4491 250.757 66.483 250.452 66.517C250.147 66.517 249.842 66.5509 249.537 66.5509C249.13 66.5509 248.825 66.4152 248.656 66.1438C248.419 65.8047 248.215 65.3976 248.08 64.9567C247.944 64.5157 247.809 64.0748 247.707 63.5999C247.639 63.2607 247.775 63.1251 248.181 63.1929C249.232 63.3625 250.519 63.4303 252.01 63.4303H276.645C277.017 63.4303 277.39 63.3964 277.763 63.3286C278.135 63.2607 278.474 63.1929 278.847 63.159C279.186 63.0911 279.559 63.0572 279.897 63.0233C280.236 63.0233 280.541 62.9894 280.846 62.9894C281.321 62.9894 281.626 63.125 281.795 63.3964C282.032 63.7695 282.235 64.1765 282.439 64.6514C282.608 65.0924 282.744 65.5333 282.879 65.9403C282.947 66.2795 282.812 66.4152 282.405 66.3474C281.253 66.1778 279.931 66.1099 278.373 66.1099H253.603H253.535ZM267.699 42.2309C267.225 43.2485 266.682 44.2999 266.039 45.3514C267.021 45.9959 268.004 46.7082 269.054 47.4883C270.071 48.2685 271.121 49.0486 272.138 49.8966C273.154 50.7107 274.137 51.5926 275.12 52.4745C276.102 53.3564 277.017 54.2382 277.898 55.0862C278.102 55.2897 278.169 55.4932 278.102 55.6628C278.034 55.8324 277.966 56.002 277.898 56.1377C277.763 56.3412 277.559 56.5787 277.322 56.8161C277.051 57.0535 276.814 57.2231 276.577 57.3588C276.17 57.5623 275.831 57.4606 275.526 57.1214C274.815 56.3751 274.035 55.5611 273.154 54.747C272.273 53.933 271.392 53.085 270.444 52.2709C269.495 51.4569 268.512 50.6428 267.53 49.8627C266.513 49.0825 265.564 48.3363 264.616 47.624C263.26 49.4896 261.701 51.2534 259.939 52.8815C258.177 54.5096 256.212 55.9681 254.01 57.291C253.739 57.4606 253.501 57.5623 253.298 57.5623C253.095 57.5623 252.858 57.5623 252.62 57.5284C252.18 57.3249 251.807 57.1214 251.468 56.85C251.333 56.7483 251.265 56.6126 251.299 56.4091C251.299 56.2395 251.434 56.0699 251.638 55.9342C253.061 55.0184 254.382 54.0008 255.67 52.9154C256.958 51.83 258.11 50.7107 259.16 49.5235C260.21 48.3363 261.159 47.1831 261.972 45.9959C262.786 44.8087 263.463 43.6216 264.006 42.5022C264.141 42.197 264.209 41.9256 264.243 41.6882C264.243 41.4507 264.175 41.2133 263.972 40.942C263.768 40.7045 263.565 40.4671 263.362 40.2297C263.158 39.9922 262.887 39.7887 262.616 39.653C262.447 39.5513 262.413 39.3817 262.447 39.2121C262.515 39.0086 262.616 38.7711 262.786 38.5676C262.955 38.3641 263.125 38.1606 263.26 37.991C263.362 37.8892 263.531 37.8892 263.802 38.0249C265.192 38.6355 266.479 39.4834 267.665 40.6367C267.868 40.8402 267.97 41.0776 267.97 41.4168C267.97 41.756 267.902 42.0274 267.801 42.2309H267.699Z" fill="white"/>
<path d="M288.097 53.5937C288.097 53.2546 288.097 52.9832 288.063 52.7119C288.063 52.4405 287.927 52.2709 287.69 52.1352C287.453 51.9995 287.182 51.8978 286.877 51.8639C286.572 51.83 286.301 51.7621 286.064 51.7282C285.793 51.6604 285.657 51.5586 285.657 51.389C285.657 51.1855 285.657 50.9141 285.691 50.6089C285.691 50.3036 285.759 50.0662 285.861 49.8287C285.928 49.693 286.064 49.6252 286.335 49.6252C286.911 49.5574 287.623 49.5574 288.47 49.6252C289.317 49.6931 290.13 49.7609 290.842 49.8627H298.737C298.906 49.8627 299.109 49.8626 299.279 49.8287V43.5537H292.028C291.655 43.5537 291.282 43.5876 290.943 43.6554C290.604 43.7233 290.266 43.7911 289.893 43.825C289.554 43.8929 289.249 43.9268 288.944 43.9607C288.639 43.9607 288.334 43.9946 288.029 43.9946C287.623 43.9946 287.318 43.859 287.148 43.5876C286.674 42.8753 286.335 42.0273 286.166 41.0776C286.098 40.7384 286.267 40.6027 286.64 40.6706C287.69 40.8402 288.91 40.908 290.299 40.908H298.364C298.872 40.908 299.313 40.7723 299.719 40.4671C299.99 40.2635 300.363 40.2635 300.804 40.4671C301.109 40.6027 301.414 40.7723 301.752 40.9419C302.091 41.1115 302.396 41.315 302.701 41.5864C302.904 41.7899 303.006 42.1291 302.938 42.57C302.871 43.0449 302.803 43.5876 302.735 44.1982C302.667 44.8087 302.566 45.4532 302.464 46.0976C302.362 46.7421 302.261 47.3865 302.159 47.9971C302.057 48.6076 301.956 49.1503 301.854 49.6591C302.295 49.727 302.6 49.8966 302.803 50.2358C302.938 50.5071 303.04 50.8124 303.142 51.1855C303.209 51.5247 303.277 51.8978 303.277 52.237C303.277 52.5083 303.108 52.644 302.803 52.644C302.193 52.644 301.583 52.6101 300.973 52.5762C300.363 52.5762 299.719 52.5762 299.008 52.5762H291.113C291.113 53.0171 291.079 53.4581 291.113 53.8651C291.113 54.3061 291.113 54.7131 291.113 55.0862V58.8173C291.113 59.1904 291.18 59.4278 291.316 59.5635C291.451 59.6653 291.723 59.7331 292.129 59.7331C292.976 59.7331 293.959 59.6992 295.145 59.5974C296.297 59.4957 297.551 59.36 298.838 59.2243C300.126 59.0547 301.447 58.8851 302.769 58.6816C304.09 58.4781 305.344 58.2746 306.564 58.0372C306.903 57.9693 307.106 58.1389 307.106 58.512C307.106 58.9869 307.038 59.4618 306.903 59.9366C306.835 60.0384 306.767 60.1401 306.632 60.208C306.496 60.2758 306.395 60.3097 306.293 60.3437C303.853 60.9542 301.481 61.4969 299.211 61.9039C296.941 62.311 294.671 62.6162 292.434 62.8197C292.163 62.8197 291.892 62.8197 291.587 62.8197C291.316 62.8197 291.011 62.718 290.74 62.6162C290.266 62.4127 289.791 62.1414 289.385 61.8361C288.978 61.5308 288.639 61.1916 288.402 60.8524C288.199 60.5132 288.063 60.1062 288.063 59.6313V53.6616L288.097 53.5937ZM312.833 49.1164H314.391C314.764 49.1164 315.137 49.0825 315.476 49.0147C315.815 48.9468 316.187 48.879 316.526 48.8451C316.865 48.7772 317.17 48.7433 317.509 48.7094C317.848 48.6755 318.153 48.6755 318.458 48.6755C318.864 48.6755 319.169 48.8112 319.339 49.0825C319.542 49.3878 319.745 49.7609 319.948 50.2358C320.152 50.7106 320.253 51.1516 320.321 51.6264C320.389 51.9656 320.22 52.1013 319.847 52.0335C318.796 51.8639 317.543 51.796 316.119 51.796H312.867V70.1802C312.867 70.6211 312.731 70.9264 312.46 71.0621C312.155 71.2656 311.85 71.4691 311.511 71.6048C311.172 71.7405 310.833 71.8422 310.461 71.8422C310.02 71.8422 309.817 71.6387 309.817 71.1978V40.0939C309.817 39.6869 309.783 39.3138 309.681 39.0085C309.614 38.7033 309.41 38.4319 309.105 38.2284C308.699 37.8892 308.292 37.6179 307.886 37.3804C307.479 37.143 307.038 36.9055 306.598 36.702C306.395 36.6342 306.293 36.4985 306.327 36.295C306.462 35.8201 306.666 35.3792 306.937 35.04C307.005 34.9043 307.208 34.8704 307.479 34.9043C308.36 35.1078 309.275 35.4131 310.224 35.7523C311.172 36.0915 312.019 36.4985 312.799 36.9734C313.07 37.1769 313.205 37.4483 313.172 37.7874C313.104 38.398 313.07 39.0085 313.002 39.6869C312.934 40.3653 312.9 41.0437 312.9 41.756V49.1503L312.833 49.1164Z" fill="white"/>
<path d="M341.907 50.6091C341.907 51.898 341.67 53.1191 341.229 54.2724C340.789 55.4256 340.145 56.4093 339.298 57.2573C338.451 58.1052 337.468 58.7836 336.282 59.2585C335.13 59.7333 333.808 60.0047 332.351 60.0047C330.894 60.0047 329.573 59.7673 328.421 59.2585C327.269 58.7836 326.252 58.1052 325.405 57.2573C324.558 56.4093 323.914 55.3917 323.474 54.2724C323.033 53.153 322.796 51.898 322.796 50.6091C322.796 49.3202 323.033 48.0991 323.474 46.9458C323.914 45.7926 324.558 44.8089 325.405 43.961C326.252 43.113 327.235 42.4346 328.421 41.9597C329.573 41.4849 330.894 41.2135 332.351 41.2135C333.808 41.2135 335.13 41.4509 336.282 41.9597C337.434 42.4346 338.451 43.113 339.298 43.961C340.145 44.8089 340.789 45.8265 341.229 46.9458C341.67 48.0991 341.907 49.3202 341.907 50.6091ZM338.857 50.6091C338.857 49.7272 338.722 48.9131 338.417 48.0991C338.112 47.285 337.671 46.5727 337.129 45.9283C336.587 45.2838 335.875 44.8089 335.062 44.4358C334.249 44.0627 333.368 43.8592 332.351 43.8592C331.335 43.8592 330.454 44.0627 329.641 44.4358C328.827 44.8089 328.15 45.3177 327.574 45.9283C326.998 46.5388 326.557 47.285 326.286 48.0991C325.981 48.9131 325.846 49.7611 325.846 50.6091C325.846 51.4571 325.981 52.3051 326.286 53.1191C326.591 53.9332 327.031 54.6455 327.574 55.2899C328.116 55.9344 328.827 56.4093 329.641 56.7824C330.454 57.1555 331.335 57.359 332.351 57.359C333.368 57.359 334.249 57.1555 335.062 56.7824C335.875 56.4093 336.553 55.9005 337.129 55.2899C337.705 54.6794 338.146 53.9332 338.417 53.1191C338.722 52.3051 338.857 51.4571 338.857 50.6091ZM350.92 70.1465C350.92 70.5875 350.785 70.8927 350.514 71.0284C350.209 71.2319 349.904 71.4354 349.565 71.5711C349.226 71.7068 348.887 71.8086 348.514 71.8086C348.074 71.8086 347.871 71.605 347.871 71.1641V40.0603C347.871 39.6532 347.837 39.2801 347.735 38.9748C347.667 38.6696 347.464 38.3982 347.159 38.1947C346.752 37.8555 346.346 37.5842 345.939 37.3467C345.532 37.1093 345.092 36.8719 344.651 36.6684C344.448 36.6005 344.347 36.4648 344.38 36.2613C344.516 35.7864 344.719 35.3455 344.99 35.0063C345.058 34.8706 345.261 34.8367 345.532 34.8706C346.413 35.0741 347.328 35.3794 348.277 35.7186C349.226 36.0578 350.073 36.4648 350.852 36.9397C351.123 37.1432 351.259 37.4146 351.225 37.7538C351.157 38.3643 351.123 38.9748 351.056 39.6532C350.988 40.3316 350.954 41.01 350.954 41.7223V70.1804L350.92 70.1465Z" fill="white"/>
<path d="M361.491 42.3668C361.491 42.0276 361.491 41.7562 361.457 41.4849C361.457 41.2135 361.322 41.01 361.084 40.9082C360.813 40.7726 360.508 40.6708 360.203 40.603C359.898 40.5351 359.593 40.5012 359.288 40.4673C359.017 40.4673 358.882 40.3655 358.882 40.1281C358.882 39.6532 358.95 39.1105 359.085 38.5678C359.153 38.4321 359.288 38.3643 359.56 38.3643C360.136 38.2965 360.881 38.3304 361.762 38.3643C362.677 38.4321 363.49 38.5339 364.236 38.6357H371.317C371.656 38.6357 371.995 38.6357 372.334 38.5678C372.673 38.5 373.012 38.4661 373.351 38.3982C373.689 38.3304 373.994 38.2965 374.333 38.2625C374.672 38.2625 374.977 38.2286 375.282 38.2286C375.451 38.2286 375.587 38.2286 375.756 38.2965C375.926 38.3643 376.027 38.4321 376.129 38.5678C376.4 38.907 376.603 39.314 376.773 39.7889C376.942 40.2638 377.044 40.6708 377.112 41.0778C377.18 41.417 377.01 41.5527 376.671 41.4849C375.553 41.3153 374.299 41.2474 372.876 41.2474H364.541V45.3856H370.911C371.25 45.3856 371.589 45.3856 371.927 45.3177C372.266 45.2499 372.605 45.216 372.944 45.1481C373.283 45.0803 373.588 45.0464 373.927 45.0125C374.265 45.0125 374.57 44.9785 374.875 44.9785C375.045 44.9785 375.18 44.9785 375.35 45.0464C375.485 45.1142 375.621 45.182 375.722 45.3177C375.994 45.6569 376.197 46.0639 376.366 46.5388C376.536 47.0137 376.637 47.4207 376.705 47.8277C376.773 48.1669 376.603 48.3026 376.265 48.2348C375.146 48.0652 373.893 47.9973 372.47 47.9973H364.541V51.7284C364.541 52.1015 364.642 52.3729 364.812 52.5086C364.981 52.6442 365.286 52.746 365.693 52.746C366.54 52.746 367.556 52.6782 368.776 52.5764C369.996 52.4747 371.284 52.339 372.639 52.1694C373.994 51.9998 375.35 51.8302 376.739 51.5928C378.094 51.3892 379.382 51.1518 380.568 50.9483C380.907 50.8805 381.11 51.0501 381.11 51.4232C381.11 51.9659 381.042 52.4407 380.873 52.8817C380.805 53.0174 380.737 53.1191 380.602 53.153C380.466 53.1869 380.365 53.2548 380.263 53.2887C377.823 53.8314 375.35 54.3063 372.876 54.7133C370.403 55.1203 368.031 55.4256 365.794 55.5952C365.523 55.5952 365.218 55.5952 364.913 55.5952C364.608 55.5613 364.303 55.4935 364.032 55.3578C363.084 54.9507 362.372 54.408 361.864 53.7297C361.626 53.3566 361.491 52.9156 361.491 52.4747V42.2311V42.3668ZM386.972 65.2282C386.972 66.2797 386.769 67.2973 386.362 68.2131C385.956 69.1289 385.38 69.9769 384.634 70.6892C383.889 71.4015 382.974 71.9442 381.889 72.3512C380.805 72.7583 379.585 72.9618 378.196 72.9618C376.807 72.9618 375.587 72.7583 374.503 72.3512C373.418 71.9442 372.503 71.4015 371.758 70.6892C371.013 69.9769 370.436 69.1629 370.03 68.2131C369.623 67.2634 369.42 66.2797 369.42 65.2282C369.42 64.1767 369.623 63.1592 370.03 62.2434C370.436 61.2936 371.013 60.4796 371.758 59.7673C372.503 59.055 373.418 58.5123 374.503 58.1052C375.587 57.6982 376.807 57.4947 378.196 57.4947C379.585 57.4947 380.805 57.6982 381.889 58.1052C382.974 58.5123 383.889 59.055 384.634 59.7673C385.38 60.4796 385.956 61.2936 386.362 62.2434C386.769 63.1931 386.972 64.1767 386.972 65.2282ZM383.923 65.2282C383.923 64.5499 383.787 63.9054 383.55 63.2609C383.279 62.6504 382.906 62.1077 382.432 61.6328C381.957 61.1579 381.347 60.8187 380.636 60.5474C379.924 60.276 379.111 60.1404 378.196 60.1404C377.281 60.1404 376.468 60.276 375.756 60.5474C375.045 60.8187 374.469 61.1919 373.96 61.6328C373.486 62.1077 373.113 62.6504 372.842 63.2609C372.571 63.8715 372.47 64.5499 372.47 65.2282C372.47 65.9066 372.605 66.585 372.842 67.1956C373.113 67.8061 373.486 68.3488 373.96 68.7897C374.435 69.2646 375.045 69.6038 375.756 69.8752C376.468 70.1465 377.281 70.2822 378.196 70.2822C379.111 70.2822 379.924 70.1465 380.636 69.8752C381.347 69.6038 381.923 69.2307 382.432 68.7897C382.906 68.3149 383.279 67.8061 383.55 67.1956C383.821 66.585 383.923 65.9405 383.923 65.2282ZM384.126 40.0603C384.126 39.6532 384.092 39.2801 383.99 38.9748C383.923 38.6696 383.719 38.3982 383.414 38.1947C383.008 37.8555 382.601 37.5842 382.194 37.3467C381.788 37.1093 381.347 36.8719 380.907 36.6684C380.704 36.6005 380.602 36.4648 380.636 36.2613C380.771 35.7864 380.975 35.3455 381.246 35.0063C381.313 34.8706 381.517 34.8367 381.788 34.8706C382.669 35.0741 383.584 35.3794 384.532 35.7186C385.481 36.0578 386.328 36.4648 387.108 36.9397C387.379 37.1432 387.514 37.4146 387.48 37.7538C387.413 38.3643 387.379 38.9748 387.311 39.6532C387.243 40.3316 387.209 41.01 387.209 41.7223V55.5274C387.209 55.9683 387.074 56.2736 386.803 56.4093C386.498 56.6128 386.193 56.8163 385.854 56.952C385.515 57.0877 385.176 57.1894 384.804 57.1894C384.363 57.1894 384.16 56.9859 384.16 56.5449V40.0942L384.126 40.0603Z" fill="white"/>
<path d="M415.097 50.6091C415.097 51.898 414.86 53.1191 414.42 54.2724C413.979 55.4256 413.335 56.4093 412.488 57.2573C411.641 58.1052 410.658 58.7836 409.472 59.2585C408.32 59.7333 406.999 60.0047 405.542 60.0047C404.085 60.0047 402.763 59.7673 401.611 59.2585C400.459 58.7836 399.443 58.1052 398.595 57.2573C397.748 56.4093 397.105 55.3917 396.664 54.2724C396.224 53.153 395.986 51.898 395.986 50.6091C395.986 49.3202 396.224 48.0991 396.664 46.9458C397.105 45.7926 397.748 44.8089 398.595 43.961C399.443 43.113 400.425 42.4346 401.611 41.9597C402.763 41.4849 404.085 41.2135 405.542 41.2135C406.999 41.2135 408.32 41.4509 409.472 41.9597C410.624 42.4346 411.641 43.113 412.488 43.961C413.335 44.8089 413.979 45.8265 414.42 46.9458C414.86 48.0991 415.097 49.3202 415.097 50.6091ZM412.048 50.6091C412.048 49.7272 411.912 48.9131 411.607 48.0991C411.302 47.285 410.862 46.5727 410.32 45.9283C409.777 45.2838 409.066 44.8089 408.253 44.4358C407.439 44.0627 406.558 43.8592 405.542 43.8592C404.525 43.8592 403.644 44.0627 402.831 44.4358C402.018 44.8089 401.34 45.3177 400.764 45.9283C400.188 46.5388 399.748 47.285 399.476 48.0991C399.171 48.9131 399.036 49.7611 399.036 50.6091C399.036 51.4571 399.171 52.3051 399.476 53.1191C399.781 53.9332 400.222 54.6455 400.764 55.2899C401.306 55.9344 402.018 56.4093 402.831 56.7824C403.644 57.1555 404.525 57.359 405.542 57.359C406.558 57.359 407.439 57.1555 408.253 56.7824C409.066 56.4093 409.743 55.9005 410.32 55.2899C410.896 54.6794 411.336 53.9332 411.607 53.1191C411.912 52.3051 412.048 51.4571 412.048 50.6091ZM424.111 70.1465C424.111 70.5875 423.975 70.8927 423.704 71.0284C423.399 71.2319 423.094 71.4354 422.755 71.5711C422.416 71.7068 422.077 71.8086 421.705 71.8086C421.264 71.8086 421.061 71.605 421.061 71.1641V40.0603C421.061 39.6532 421.027 39.2801 420.925 38.9748C420.858 38.6696 420.654 38.3982 420.349 38.1947C419.943 37.8555 419.536 37.5842 419.13 37.3467C418.723 37.1093 418.282 36.8719 417.842 36.6684C417.639 36.6005 417.537 36.4648 417.571 36.2613C417.706 35.7864 417.91 35.3455 418.181 35.0063C418.249 34.8706 418.452 34.8367 418.723 34.8706C419.604 35.0741 420.519 35.3794 421.468 35.7186C422.416 36.0578 423.263 36.4648 424.043 36.9397C424.314 37.1432 424.449 37.4146 424.416 37.7538C424.348 38.3643 424.314 38.9748 424.246 39.6532C424.178 40.3316 424.144 41.01 424.144 41.7223V70.1804L424.111 70.1465Z" fill="white"/>
<path d="M450.371 50.6086C450.371 51.8976 450.168 53.1187 449.727 54.2719C449.287 55.4252 448.711 56.4088 447.897 57.2568C447.084 58.1048 446.135 58.7832 444.983 59.258C443.831 59.7329 442.51 60.0042 441.053 60.0042C439.596 60.0042 438.274 59.7668 437.122 59.258C435.97 58.7832 434.987 58.1048 434.208 57.2568C433.395 56.4088 432.785 55.3912 432.378 54.2719C431.972 53.1526 431.734 51.8976 431.734 50.6086C431.734 49.3197 431.938 48.0986 432.378 46.9454C432.819 45.7921 433.395 44.8085 434.208 43.9605C435.021 43.1125 435.97 42.4341 437.122 41.9593C438.274 41.4844 439.596 41.213 441.053 41.213C442.51 41.213 443.831 41.4505 444.983 41.9593C446.135 42.4341 447.118 43.1125 447.897 43.9605C448.711 44.8085 449.32 45.8261 449.727 46.9454C450.134 48.0647 450.371 49.3197 450.371 50.6086ZM447.321 50.6086C447.321 49.7267 447.186 48.9127 446.881 48.0986C446.61 47.2846 446.203 46.5723 445.661 45.9278C445.119 45.3173 444.475 44.8085 443.696 44.4354C442.916 44.0623 442.035 43.8587 441.019 43.8587C440.002 43.8587 439.121 44.0623 438.342 44.4354C437.563 44.8085 436.919 45.3173 436.377 45.9278C435.834 46.5384 435.428 47.2846 435.157 48.0986C434.886 48.9127 434.716 49.7607 434.716 50.6086C434.716 51.4566 434.852 52.3046 435.157 53.1187C435.428 53.9327 435.834 54.645 436.377 55.2895C436.919 55.9 437.563 56.4088 438.342 56.7819C439.121 57.155 440.002 57.3585 441.019 57.3585C442.035 57.3585 442.916 57.155 443.696 56.7819C444.475 56.4088 445.119 55.9 445.661 55.2895C446.203 54.6789 446.61 53.9327 446.881 53.1187C447.152 52.3046 447.321 51.4566 447.321 50.6086ZM459.045 44.9781H460.333C460.706 44.9781 461.078 44.9781 461.417 44.8763C461.756 44.7746 462.129 44.7406 462.468 44.7067C462.807 44.6389 463.112 44.605 463.45 44.571C463.789 44.571 464.094 44.5371 464.399 44.5371C464.806 44.5371 465.111 44.6728 465.28 44.9442C465.483 45.2494 465.687 45.6225 465.89 46.0974C466.093 46.5723 466.195 47.0132 466.263 47.4881C466.331 47.8273 466.161 47.963 465.788 47.8951C464.738 47.7255 463.484 47.6577 462.061 47.6577H459.045V54.5772H460.74C461.112 54.5772 461.485 54.5433 461.824 54.4754C462.163 54.4076 462.535 54.3397 462.874 54.3058C463.213 54.238 463.518 54.2041 463.857 54.1702C464.196 54.1362 464.501 54.1362 464.806 54.1362C465.212 54.1362 465.517 54.2719 465.687 54.5433C465.89 54.8485 466.093 55.2216 466.297 55.6965C466.5 56.1714 466.602 56.6123 466.669 57.0872C466.737 57.4264 466.568 57.5621 466.195 57.4942C465.145 57.3246 463.891 57.2568 462.468 57.2568H459.045V70.2139C459.045 70.6548 458.91 70.9601 458.639 71.0958C458.334 71.2993 458.029 71.5028 457.69 71.6385C457.351 71.7742 457.012 71.8759 456.64 71.8759C456.199 71.8759 455.996 71.6724 455.996 71.2315V40.1276C455.996 39.7206 455.962 39.3475 455.86 39.0422C455.792 38.737 455.589 38.4656 455.284 38.2621C454.878 37.9229 454.471 37.6515 454.064 37.4141C453.658 37.1767 453.217 36.9392 452.777 36.7357C452.573 36.6679 452.472 36.5322 452.506 36.3287C452.641 35.8538 452.844 35.4129 453.116 35.0737C453.183 34.938 453.387 34.9041 453.658 34.938C454.539 35.1415 455.454 35.4468 456.402 35.786C457.351 36.1252 458.198 36.5322 458.978 37.0071C459.249 37.2106 459.384 37.4819 459.35 37.8211C459.283 38.4317 459.249 39.0422 459.181 39.7206C459.113 40.399 459.079 41.0774 459.079 41.7897V45.0798L459.045 44.9781Z" fill="white"/>
<path d="M471.853 42.197C471.277 42.8076 470.972 43.4859 470.871 44.3C470.871 44.4696 470.837 44.7409 470.837 45.1141V45.996C470.837 46.2673 470.701 46.403 470.43 46.403H469.278C468.939 46.403 468.736 46.3351 468.601 46.1995C468.465 46.0638 468.363 45.8942 468.329 45.7246L467.584 41.4508C467.991 41.0777 468.465 40.6707 469.007 40.2976C469.549 39.8905 470.159 39.5513 470.803 39.2461C471.481 38.9408 472.192 38.6694 473.006 38.4659C473.819 38.2624 474.7 38.1606 475.682 38.1606C476.97 38.1606 478.156 38.3302 479.173 38.7033C480.189 39.0765 481.07 39.5513 481.782 40.1619C482.493 40.7724 483.035 41.5186 483.408 42.3666C483.781 43.2146 483.95 44.1304 483.95 45.1141C483.95 46.7761 483.51 48.2346 482.595 49.4557C481.714 50.7107 480.528 51.8979 479.105 53.085C478.393 53.6617 477.783 54.3061 477.309 55.0184C476.801 55.7307 476.496 56.5109 476.36 57.3249C476.292 57.8676 476.225 58.4443 476.191 59.0887C476.157 59.6993 476.123 60.4116 476.089 61.1578H473.887C473.819 60.4455 473.785 59.6314 473.751 58.7156C473.751 57.7998 473.819 56.9518 473.988 56.1378C474.225 55.188 474.632 54.374 475.174 53.6617C475.716 52.9833 476.394 52.2371 477.173 51.4569C478.054 50.575 478.8 49.5914 479.41 48.4381C480.02 47.2849 480.291 46.1656 480.291 45.0123C480.291 43.7234 479.85 42.7397 479.003 41.9935C478.156 41.2473 477.038 40.8403 475.649 40.8063C474.869 40.8063 474.124 40.8742 473.48 41.1455C472.802 41.383 472.26 41.7561 471.82 42.197H471.853ZM477.749 67.6703C477.749 68.4504 477.478 69.0949 476.97 69.6376C476.462 70.1464 475.818 70.4177 475.005 70.4177C474.191 70.4177 473.582 70.1464 473.039 69.6376C472.497 69.1288 472.26 68.4843 472.26 67.6703C472.26 66.8562 472.531 66.2457 473.039 65.703C473.548 65.1942 474.191 64.9228 475.005 64.9228C475.818 64.9228 476.428 65.1942 476.97 65.703C477.478 66.2117 477.749 66.8562 477.749 67.6703Z" fill="white"/>
<defs>
<clipPath id="clip0_205_132">
<rect width="517.205" height="108.629" fill="white"/>
</clipPath>
</defs>
</svg>
